Barlow-SemiLight.ufo
<glyph name="period" format="1">
  <advance width="289"/>
  <unicode hex="002E"/>
  <outline>
    <contour>
      <point x="189" y="-37"/>
      <point x="224" y="-2"/>
      <point x="224" y="41" type="curve" smooth="yes"/>
      <point x="224" y="83"/>
      <point x="188" y="118"/>
      <point x="145" y="118" type="curve" smooth="yes"/>
      <point x="102" y="118"/>
      <point x="66" y="83"/>
      <point x="66" y="41" type="curve" smooth="yes"/>
      <point x="66" y="-3"/>
      <point x="101" y="-37"/>
      <point x="145" y="-37" type="curve" smooth="yes"/>
    </contour>
    <contour>
      <point x="144" y="34"/>
      <point x="138" y="40"/>
      <point x="138" y="41" type="curve" smooth="yes"/>
      <point x="138" y="42"/>
      <point x="144" y="47"/>
      <point x="145" y="47" type="curve" smooth="yes"/>
      <point x="146" y="47"/>
      <point x="152" y="42"/>
      <point x="152" y="41" type="curve" smooth="yes"/>
      <point x="152" y="40"/>
      <point x="146" y="34"/>
      <point x="145" y="34" type="curve" smooth="yes"/>
    </contour>
  </outline>
</glyph>
<glyph name="A" format="1">
  <advance width="450"/>
  <unicode hex="0041"/>
  <outline>
    <contour>
      <point x="135" y="0" type="line"/>
      <point x="226" y="419" type="line"/>
      <point x="317" y="0" type="line"/>
      <point x="425" y="0" type="line"/>
      <point x="271" y="700" type="line"/>
      <point x="181" y="700" type="line"/>
      <point x="27" y="0" type="line"/>
    </contour>
    <contour>
      <point x="368" y="93" type="line"/>
      <point x="368" y="195" type="line"/>
      <point x="85" y="195" type="line"/>
      <point x="85" y="93" type="line"/>
    </contour>
  </outline>
</glyph>
<glyph name="B" format="1">
  <advance width="499"/>
  <unicode hex="0042"/>
  <outline>
    <contour>
      <point x="163" y="313" type="line"/>
      <point x="235" y="313" type="line" smooth="yes"/>
      <point x="300" y="313"/>
      <point x="343" y="271"/>
      <point x="343" y="208" type="curve" smooth="yes"/>
      <point x="343" y="145"/>
      <point x="300" y="103"/>
      <point x="235" y="103" type="curve" smooth="yes"/>
      <point x="163" y="103" type="line"/>
    </contour>
    <contour>
      <point x="163" y="597" type="line"/>
      <point x="235" y="597" type="line" smooth="yes"/>
      <point x="300" y="597"/>
      <point x="343" y="558"/>
      <point x="343" y="499" type="curve" smooth="yes"/>
      <point x="343" y="439"/>
      <point x="300" y="399"/>
      <point x="235" y="399" type="curve"/>
      <point x="163" y="399" type="line"/>
    </contour>
    <contour>
      <point x="235" y="313" type="line" smooth="yes"/>
      <point x="362" y="313"/>
      <point x="446" y="388"/>
      <point x="446" y="505" type="curve" smooth="yes"/>
      <point x="446" y="621"/>
      <point x="363" y="700"/>
      <point x="239" y="700" type="curve" smooth="yes"/>
      <point x="57" y="700" type="line"/>
      <point x="57" y="313" type="line"/>
    </contour>
    <contour>
      <point x="239" y="0" type="line" smooth="yes"/>
      <point x="362" y="0"/>
      <point x="446" y="83"/>
      <point x="446" y="203" type="curve" smooth="yes"/>
      <point x="446" y="323"/>
      <point x="363" y="399"/>
      <point x="235" y="399" type="curve"/>
      <point x="57" y="399" type="line"/>
      <point x="57" y="0" type="line"/>
    </contour>
  </outline>
</glyph>
<glyph name="C" format="1">
  <advance width="478"/>
  <unicode hex="0043"/>
  <outline>
    <contour>
      <point x="363" y="-9"/>
      <point x="437" y="63"/>
      <point x="437" y="174" type="curve" smooth="yes"/>
      <point x="437" y="218" type="line"/>
      <point x="331" y="218" type="line"/>
      <point x="331" y="174" type="line" smooth="yes"/>
      <point x="331" y="121"/>
      <point x="304" y="94"/>
      <point x="252" y="94" type="curve" smooth="yes"/>
      <point x="200" y="94"/>
      <point x="173" y="121"/>
      <point x="173" y="174" type="curve" smooth="yes"/>
      <point x="173" y="526" type="line" smooth="yes"/>
      <point x="173" y="578"/>
      <point x="201" y="607"/>
      <point x="252" y="607" type="curve" smooth="yes"/>
      <point x="303" y="607"/>
      <point x="331" y="578"/>
      <point x="331" y="526" type="curve" smooth="yes"/>
      <point x="331" y="482" type="line"/>
      <point x="437" y="482" type="line"/>
      <point x="437" y="526" type="line" smooth="yes"/>
      <point x="437" y="637"/>
      <point x="363" y="708"/>
      <point x="252" y="708" type="curve" smooth="yes"/>
      <point x="141" y="708"/>
      <point x="67" y="637"/>
      <point x="67" y="526" type="curve" smooth="yes"/>
      <point x="67" y="174" type="line" smooth="yes"/>
      <point x="67" y="63"/>
      <point x="141" y="-9"/>
      <point x="252" y="-9" type="curve" smooth="yes"/>
    </contour>
  </outline>
</glyph>
<glyph name="D" format="1">
  <advance width="512"/>
  <unicode hex="0044"/>
  <outline>
    <contour>
      <point x="260" y="0" type="line" smooth="yes"/>
      <point x="372" y="0"/>
      <point x="445" y="73"/>
      <point x="445" y="184" type="curve" smooth="yes"/>
      <point x="445" y="516" type="line" smooth="yes"/>
      <point x="445" y="627"/>
      <point x="372" y="700"/>
      <point x="260" y="700" type="curve" smooth="yes"/>
      <point x="75" y="700" type="line"/>
      <point x="75" y="0" type="line"/>
    </contour>
    <contour>
      <point x="181" y="597" type="line"/>
      <point x="260" y="597" type="line" smooth="yes"/>
      <point x="312" y="597"/>
      <point x="339" y="569"/>
      <point x="339" y="516" type="curve" smooth="yes"/>
      <point x="339" y="184" type="line" smooth="yes"/>
      <point x="339" y="132"/>
      <point x="312" y="104"/>
      <point x="260" y="104" type="curve" smooth="yes"/>
      <point x="181" y="104" type="line"/>
    </contour>
  </outline>
</glyph>
<glyph name="E" format="1">
  <advance width="477"/>
  <unicode hex="0045"/>
  <outline>
    <contour>
      <point x="426" y="0" type="line"/>
      <point x="426" y="104" type="line"/>
      <point x="164" y="104" type="line"/>
      <point x="164" y="597" type="line"/>
      <point x="426" y="597" type="line"/>
      <point x="426" y="700" type="line"/>
      <point x="58" y="700" type="line"/>
      <point x="58" y="0" type="line"/>
    </contour>
    <contour>
      <point x="334" y="299" type="line"/>
      <point x="334" y="402" type="line"/>
      <point x="68" y="402" type="line"/>
      <point x="68" y="299" type="line"/>
    </contour>
  </outline>
</glyph>
<glyph name="F" format="1">
  <advance width="475"/>
  <unicode hex="0046"/>
  <outline>
    <contour>
      <point x="182" y="0" type="line"/>
      <point x="182" y="597" type="line"/>
      <point x="445" y="597" type="line"/>
      <point x="445" y="700" type="line"/>
      <point x="76" y="700" type="line"/>
      <point x="76" y="0" type="line"/>
    </contour>
    <contour>
      <point x="352" y="299" type="line"/>
      <point x="352" y="402" type="line"/>
      <point x="86" y="402" type="line"/>
      <point x="86" y="299" type="line"/>
    </contour>
  </outline>
</glyph>
<glyph name="G" format="1">
  <advance width="493"/>
  <unicode hex="0047"/>
  <outline>
    <contour>
      <point x="363" y="-9"/>
      <point x="437" y="64"/>
      <point x="437" y="174" type="curve"/>
      <point x="437" y="402" type="line"/>
      <point x="257" y="402" type="line"/>
      <point x="257" y="299" type="line"/>
      <point x="331" y="299" type="line"/>
      <point x="331" y="174" type="line"/>
      <point x="331" y="121"/>
      <point x="305" y="94"/>
      <point x="252" y="94" type="curve" smooth="yes"/>
      <point x="199" y="94"/>
      <point x="173" y="121"/>
      <point x="173" y="174" type="curve"/>
      <point x="173" y="526" type="line"/>
      <point x="173" y="579"/>
      <point x="200" y="607"/>
      <point x="252" y="607" type="curve" smooth="yes"/>
      <point x="304" y="607"/>
      <point x="331" y="579"/>
      <point x="331" y="526" type="curve"/>
      <point x="437" y="526" type="line"/>
      <point x="437" y="636"/>
      <point x="363" y="709"/>
      <point x="252" y="709" type="curve"/>
      <point x="141" y="709"/>
      <point x="67" y="636"/>
      <point x="67" y="526" type="curve"/>
      <point x="67" y="174" type="line"/>
      <point x="67" y="64"/>
      <point x="141" y="-9"/>
      <point x="252" y="-9" type="curve" smooth="yes"/>
    </contour>
  </outline>
</glyph>
<glyph name="H" format="1">
  <advance width="522"/>
  <unicode hex="0048"/>
  <outline>
    <contour>
      <point x="446" y="0" type="line"/>
      <point x="446" y="700" type="line"/>
      <point x="340" y="700" type="line"/>
      <point x="340" y="0" type="line"/>
    </contour>
    <contour>
      <point x="182" y="0" type="line"/>
      <point x="182" y="700" type="line"/>
      <point x="76" y="700" type="line"/>
      <point x="76" y="0" type="line"/>
    </contour>
    <contour>
      <point x="431" y="299" type="line"/>
      <point x="431" y="402" type="line"/>
      <point x="91" y="402" type="line"/>
      <point x="91" y="299" type="line"/>
    </contour>
  </outline>
</glyph>
<glyph name="J" format="1">
  <advance width="473"/>
  <unicode hex="004A"/>
  <outline>
    <contour>
      <point x="329" y="-10"/>
      <point x="401" y="62"/>
      <point x="401" y="174" type="curve" smooth="yes"/>
      <point x="401" y="699" type="line"/>
      <point x="295" y="699" type="line"/>
      <point x="295" y="174" type="line" smooth="yes"/>
      <point x="295" y="121"/>
      <point x="269" y="94"/>
      <point x="219" y="94" type="curve" smooth="yes"/>
      <point x="169" y="94"/>
      <point x="143" y="121"/>
      <point x="143" y="174" type="curve" smooth="yes"/>
      <point x="143" y="255" type="line"/>
      <point x="37" y="255" type="line"/>
      <point x="37" y="174" type="line" smooth="yes"/>
      <point x="37" y="62"/>
      <point x="109" y="-10"/>
      <point x="219" y="-10" type="curve" smooth="yes"/>
    </contour>
  </outline>
</glyph>
<glyph name="K" format="1">
  <advance width="487"/>
  <unicode hex="004B"/>
  <outline>
    <contour>
      <point x="421" y="0" type="line"/>
      <point x="199" y="350" type="line"/>
      <point x="421" y="700" type="line"/>
      <point x="292" y="700" type="line"/>
      <point x="74" y="350" type="line"/>
      <point x="292" y="0" type="line"/>
    </contour>
    <contour>
      <point x="142" y="0" type="line"/>
      <point x="142" y="700" type="line"/>
      <point x="36" y="700" type="line"/>
      <point x="36" y="0" type="line"/>
    </contour>
  </outline>
</glyph>
<glyph name="M" format="1">
  <advance width="622"/>
  <unicode hex="004D"/>
  <outline>
    <contour>
      <point x="213" y="0" type="line"/>
      <point x="215" y="429" type="line"/>
      <point x="311" y="227" type="line"/>
      <point x="407" y="428" type="line"/>
      <point x="407" y="0" type="line"/>
      <point x="512" y="0" type="line"/>
      <point x="512" y="700" type="line"/>
      <point x="422" y="700" type="line"/>
      <point x="311" y="469" type="line"/>
      <point x="200" y="700" type="line"/>
      <point x="110" y="700" type="line"/>
      <point x="110" y="0" type="line"/>
    </contour>
  </outline>
</glyph>
<glyph name="N" format="1">
  <advance width="522"/>
  <unicode hex="004E"/>
  <outline>
    <contour>
      <point x="182" y="0" type="line"/>
      <point x="182" y="401" type="line"/>
      <point x="354" y="0" type="line"/>
      <point x="446" y="0" type="line"/>
      <point x="446" y="700" type="line"/>
      <point x="340" y="700" type="line"/>
      <point x="340" y="299" type="line"/>
      <point x="168" y="700" type="line"/>
      <point x="76" y="700" type="line"/>
      <point x="76" y="0" type="line"/>
    </contour>
  </outline>
</glyph>
<glyph name="O" format="1">
  <advance width="502"/>
  <unicode hex="004F"/>
  <outline>
    <contour>
      <point x="354" y="-9"/>
      <point x="436" y="72"/>
      <point x="436" y="174" type="curve" smooth="yes"/>
      <point x="436" y="526" type="line" smooth="yes"/>
      <point x="436" y="628"/>
      <point x="354" y="709"/>
      <point x="251" y="709" type="curve" smooth="yes"/>
      <point x="148" y="709"/>
      <point x="66" y="628"/>
      <point x="66" y="526" type="curve" smooth="yes"/>
      <point x="66" y="174" type="line" smooth="yes"/>
      <point x="66" y="72"/>
      <point x="148" y="-9"/>
      <point x="251" y="-9" type="curve" smooth="yes"/>
    </contour>
    <contour>
      <point x="207" y="94"/>
      <point x="172" y="129"/>
      <point x="172" y="174" type="curve" smooth="yes"/>
      <point x="172" y="526" type="line" smooth="yes"/>
      <point x="172" y="571"/>
      <point x="207" y="606"/>
      <point x="251" y="606" type="curve" smooth="yes"/>
      <point x="295" y="606"/>
      <point x="330" y="571"/>
      <point x="330" y="526" type="curve" smooth="yes"/>
      <point x="330" y="174" type="line" smooth="yes"/>
      <point x="330" y="129"/>
      <point x="295" y="94"/>
      <point x="251" y="94" type="curve" smooth="yes"/>
    </contour>
  </outline>
</glyph>
<glyph name="P" format="1">
  <advance width="493"/>
  <unicode hex="0050"/>
  <outline>
    <contour>
      <point x="182" y="0" type="line"/>
      <point x="182" y="597" type="line"/>
      <point x="248" y="597" type="line" smooth="yes"/>
      <point x="307" y="597"/>
      <point x="347" y="558"/>
      <point x="347" y="499" type="curve" smooth="yes"/>
      <point x="347" y="439"/>
      <point x="307" y="399"/>
      <point x="248" y="399" type="curve" smooth="yes"/>
      <point x="92" y="399" type="line"/>
      <point x="92" y="296" type="line"/>
      <point x="249" y="296" type="line" smooth="yes"/>
      <point x="371" y="296"/>
      <point x="452" y="377"/>
      <point x="452" y="498" type="curve" smooth="yes"/>
      <point x="452" y="619"/>
      <point x="370" y="700"/>
      <point x="248" y="700" type="curve" smooth="yes"/>
      <point x="76" y="700" type="line"/>
      <point x="76" y="0" type="line"/>
    </contour>
  </outline>
</glyph>
<glyph name="R" format="1">
  <advance width="495"/>
  <unicode hex="0052"/>
  <outline>
    <contour>
      <point x="182" y="1" type="line"/>
      <point x="182" y="607" type="line"/>
      <point x="248" y="607" type="line" smooth="yes"/>
      <point x="312" y="607"/>
      <point x="347" y="571"/>
      <point x="347" y="503" type="curve" smooth="yes"/>
      <point x="347" y="434"/>
      <point x="312" y="397"/>
      <point x="248" y="397" type="curve" smooth="yes"/>
      <point x="92" y="397" type="line"/>
      <point x="92" y="293" type="line"/>
      <point x="249" y="294" type="line" smooth="yes"/>
      <point x="372" y="296"/>
      <point x="452" y="377"/>
      <point x="452" y="502" type="curve" smooth="yes"/>
      <point x="452" y="628"/>
      <point x="372" y="710"/>
      <point x="248" y="710" type="curve" smooth="yes"/>
      <point x="77" y="710" type="line"/>
      <point x="77" y="1" type="line"/>
    </contour>
    <contour>
      <point x="454" y="1" type="line"/>
      <point x="298" y="388" type="line"/>
      <point x="201" y="349" type="line"/>
      <point x="340" y="1" type="line"/>
    </contour>
  </outline>
</glyph>
<glyph name="S" format="1">
  <advance width="466"/>
  <unicode hex="0053"/>
  <outline>
    <contour>
      <point x="344" y="-9"/>
      <point x="418" y="65"/>
      <point x="418" y="173" type="curve" smooth="yes"/>
      <point x="418" y="288"/>
      <point x="335" y="347"/>
      <point x="262" y="395" type="curve" smooth="yes"/>
      <point x="176" y="451"/>
      <point x="154" y="478"/>
      <point x="154" y="528" type="curve" smooth="yes"/>
      <point x="154" y="579"/>
      <point x="181" y="607"/>
      <point x="230" y="607" type="curve" smooth="yes"/>
      <point x="280" y="607"/>
      <point x="307" y="579"/>
      <point x="307" y="526" type="curve" smooth="yes"/>
      <point x="307" y="460" type="line"/>
      <point x="412" y="460" type="line"/>
      <point x="412" y="526" type="line" smooth="yes"/>
      <point x="412" y="637"/>
      <point x="340" y="709"/>
      <point x="230" y="709" type="curve" smooth="yes"/>
      <point x="121" y="709"/>
      <point x="48" y="637"/>
      <point x="48" y="528" type="curve" smooth="yes"/>
      <point x="48" y="413"/>
      <point x="133" y="354"/>
      <point x="202" y="308" type="curve" smooth="yes"/>
      <point x="290" y="250"/>
      <point x="312" y="223"/>
      <point x="312" y="172" type="curve" smooth="yes"/>
      <point x="312" y="123"/>
      <point x="284" y="94"/>
      <point x="234" y="94" type="curve" smooth="yes"/>
      <point x="183" y="94"/>
      <point x="159" y="119"/>
      <point x="159" y="174" type="curve" smooth="yes"/>
      <point x="159" y="240" type="line"/>
      <point x="54" y="240" type="line"/>
      <point x="54" y="174" type="line" smooth="yes"/>
      <point x="54" y="61"/>
      <point x="123" y="-9"/>
      <point x="235" y="-9" type="curve" smooth="yes"/>
    </contour>
  </outline>
</glyph>
<glyph name="T" format="1">
  <advance width="430"/>
  <unicode hex="0054"/>
  <outline>
    <contour>
      <point x="264" y="0" type="line"/>
      <point x="264" y="690" type="line"/>
      <point x="159" y="690" type="line"/>
      <point x="159" y="0" type="line"/>
    </contour>
    <contour>
      <point x="400" y="597" type="line"/>
      <point x="400" y="700" type="line"/>
      <point x="30" y="700" type="line"/>
      <point x="30" y="597" type="line"/>
    </contour>
  </outline>
</glyph>
<glyph name="U" format="1">
  <advance width="514"/>
  <unicode hex="0055"/>
  <outline>
    <contour>
      <point x="368" y="-10"/>
      <point x="442" y="63"/>
      <point x="442" y="174" type="curve" smooth="yes"/>
      <point x="442" y="699" type="line"/>
      <point x="336" y="699" type="line"/>
      <point x="336" y="174" type="line" smooth="yes"/>
      <point x="336" y="121"/>
      <point x="309" y="94"/>
      <point x="257" y="94" type="curve" smooth="yes"/>
      <point x="205" y="94"/>
      <point x="178" y="121"/>
      <point x="178" y="174" type="curve" smooth="yes"/>
      <point x="178" y="699" type="line"/>
      <point x="72" y="699" type="line"/>
      <point x="72" y="174" type="line" smooth="yes"/>
      <point x="72" y="63"/>
      <point x="146" y="-10"/>
      <point x="257" y="-10" type="curve" smooth="yes"/>
    </contour>
  </outline>
</glyph>
<glyph name="W" format="1">
  <advance width="644"/>
  <unicode hex="0057"/>
  <outline>
    <contour>
      <point x="258" y="0" type="line"/>
      <point x="322" y="364" type="line"/>
      <point x="386" y="0" type="line"/>
      <point x="478" y="0" type="line"/>
      <point x="603" y="700" type="line"/>
      <point x="496" y="700" type="line"/>
      <point x="432" y="336" type="line"/>
      <point x="368" y="700" type="line"/>
      <point x="276" y="700" type="line"/>
      <point x="212" y="336" type="line"/>
      <point x="148" y="700" type="line"/>
      <point x="41" y="700" type="line"/>
      <point x="166" y="0" type="line"/>
    </contour>
  </outline>
</glyph>
<glyph name="X" format="1">
  <advance width="440"/>
  <unicode hex="0058"/>
  <outline>
    <contour>
      <point x="317" y="700" type="line"/>
      <point x="431" y="700" type="line"/>
      <point x="123" y="0" type="line"/>
      <point x="9" y="0" type="line"/>
    </contour>
    <contour>
      <point x="9" y="700" type="line"/>
      <point x="123" y="700" type="line"/>
      <point x="431" y="0" type="line"/>
      <point x="317" y="0" type="line"/>
    </contour>
  </outline>
</glyph>
<glyph name="Y" format="1">
  <advance width="436"/>
  <unicode hex="0059"/>
  <outline>
    <contour>
      <point x="431" y="700" type="line"/>
      <point x="315" y="700" type="line"/>
      <point x="218" y="482" type="line"/>
      <point x="122" y="700" type="line"/>
      <point x="5" y="700" type="line"/>
      <point x="218" y="226" type="line"/>
    </contour>
    <contour>
      <point x="271" y="0" type="line"/>
      <point x="271" y="392" type="line"/>
      <point x="165" y="392" type="line"/>
      <point x="165" y="0" type="line"/>
    </contour>
  </outline>
</glyph>
<glyph name="Z" format="1">
  <advance width="446"/>
  <unicode hex="005A"/>
  <outline>
    <contour>
      <point x="398" y="0" type="line"/>
      <point x="398" y="104" type="line"/>
      <point x="191" y="104" type="line"/>
      <point x="414" y="700" type="line"/>
      <point x="48" y="700" type="line"/>
      <point x="48" y="597" type="line"/>
      <point x="255" y="597" type="line"/>
      <point x="32" y="0" type="line"/>
    </contour>
  </outline>
</glyph>
<glyph name="a" format="1">
  <advance width="470"/>
  <unicode hex="0061"/>
  <outline>
    <contour>
      <point x="304" y="-5"/>
      <point x="367" y="75"/>
      <point x="367" y="178" type="curve" smooth="yes"/>
      <point x="367" y="322" type="line" smooth="yes"/>
      <point x="367" y="426"/>
      <point x="293" y="505"/>
      <point x="198" y="505" type="curve" smooth="yes"/>
      <point x="121" y="505"/>
      <point x="52" y="453"/>
      <point x="52" y="334" type="curve" smooth="yes"/>
      <point x="52" y="166" type="line" smooth="yes"/>
      <point x="52" y="49"/>
      <point x="130" y="-5"/>
      <point x="209" y="-5" type="curve" smooth="yes"/>
    </contour>
    <contour>
      <point x="182" y="90"/>
      <point x="154" y="119"/>
      <point x="154" y="166" type="curve" smooth="yes"/>
      <point x="154" y="334" type="line" smooth="yes"/>
      <point x="154" y="382"/>
      <point x="182" y="411"/>
      <point x="229" y="411" type="curve" smooth="yes"/>
      <point x="276" y="411"/>
      <point x="304" y="382"/>
      <point x="304" y="334" type="curve" smooth="yes"/>
      <point x="304" y="166" type="line" smooth="yes"/>
      <point x="304" y="119"/>
      <point x="276" y="90"/>
      <point x="229" y="90" type="curve" smooth="yes"/>
    </contour>
    <contour>
      <point x="406" y="0" type="line"/>
      <point x="406" y="500" type="line"/>
      <point x="304" y="500" type="line"/>
      <point x="304" y="0" type="line"/>
    </contour>
  </outline>
</glyph>
<glyph name="b" format="1">
  <advance width="470"/>
  <unicode hex="0062"/>
  <outline>
    <contour>
      <point x="348" y="-5"/>
      <point x="406" y="52"/>
      <point x="406" y="158" type="curve" smooth="yes"/>
      <point x="406" y="342" type="line" smooth="yes"/>
      <point x="406" y="448"/>
      <point x="350" y="505"/>
      <point x="262" y="505" type="curve" smooth="yes"/>
      <point x="164" y="505"/>
      <point x="91" y="426"/>
      <point x="91" y="322" type="curve" smooth="yes"/>
      <point x="91" y="178" type="line" smooth="yes"/>
      <point x="91" y="77"/>
      <point x="148" y="-5"/>
      <point x="254" y="-5" type="curve" smooth="yes"/>
    </contour>
    <contour>
      <point x="154" y="0" type="line"/>
      <point x="154" y="700" type="line"/>
      <point x="52" y="700" type="line"/>
      <point x="52" y="0" type="line"/>
    </contour>
    <contour>
      <point x="182" y="90"/>
      <point x="154" y="119"/>
      <point x="154" y="166" type="curve" smooth="yes"/>
      <point x="154" y="334" type="line" smooth="yes"/>
      <point x="154" y="382"/>
      <point x="182" y="411"/>
      <point x="229" y="411" type="curve" smooth="yes"/>
      <point x="276" y="411"/>
      <point x="304" y="382"/>
      <point x="304" y="334" type="curve" smooth="yes"/>
      <point x="304" y="166" type="line" smooth="yes"/>
      <point x="304" y="119"/>
      <point x="276" y="90"/>
      <point x="229" y="90" type="curve" smooth="yes"/>
    </contour>
  </outline>
</glyph>
<glyph name="c" format="1">
  <advance width="441"/>
  <unicode hex="0063"/>
  <outline>
    <contour>
      <point x="335" y="-10"/>
      <point x="406" y="52"/>
      <point x="406" y="146" type="curve" smooth="yes"/>
      <point x="406" y="162" type="line"/>
      <point x="304" y="162" type="line"/>
      <point x="304" y="146" type="line" smooth="yes"/>
      <point x="304" y="111"/>
      <point x="275" y="90"/>
      <point x="229" y="90" type="curve" smooth="yes"/>
      <point x="183" y="90"/>
      <point x="154" y="119"/>
      <point x="154" y="166" type="curve" smooth="yes"/>
      <point x="154" y="334" type="line" smooth="yes"/>
      <point x="154" y="382"/>
      <point x="183" y="411"/>
      <point x="229" y="411" type="curve" smooth="yes"/>
      <point x="275" y="411"/>
      <point x="304" y="389"/>
      <point x="304" y="354" type="curve" smooth="yes"/>
      <point x="304" y="338" type="line"/>
      <point x="406" y="338" type="line"/>
      <point x="406" y="354" type="line" smooth="yes"/>
      <point x="406" y="448"/>
      <point x="335" y="510"/>
      <point x="229" y="510" type="curve" smooth="yes"/>
      <point x="123" y="510"/>
      <point x="52" y="440"/>
      <point x="52" y="334" type="curve" smooth="yes"/>
      <point x="52" y="166" type="line" smooth="yes"/>
      <point x="52" y="60"/>
      <point x="123" y="-10"/>
      <point x="229" y="-10" type="curve" smooth="yes"/>
    </contour>
  </outline>
</glyph>
<glyph name="e" format="1">
  <advance width="452"/>
  <unicode hex="0065"/>
  <outline>
    <contour>
      <point x="335" y="-10"/>
      <point x="406" y="60"/>
      <point x="406" y="156" type="curve" smooth="yes"/>
      <point x="406" y="157" type="line"/>
      <point x="304" y="157" type="line"/>
      <point x="304" y="156" type="line" smooth="yes"/>
      <point x="304" y="115"/>
      <point x="279" y="90"/>
      <point x="229" y="90" type="curve" smooth="yes"/>
      <point x="179" y="90"/>
      <point x="154" y="115"/>
      <point x="154" y="166" type="curve" smooth="yes"/>
      <point x="154" y="334" type="line" smooth="yes"/>
      <point x="154" y="385"/>
      <point x="180" y="411"/>
      <point x="229" y="411" type="curve" smooth="yes"/>
      <point x="278" y="411"/>
      <point x="304" y="385"/>
      <point x="304" y="334" type="curve" smooth="yes"/>
      <point x="304" y="300" type="line"/>
      <point x="67" y="300" type="line"/>
      <point x="67" y="212" type="line"/>
      <point x="406" y="212" type="line"/>
      <point x="406" y="334" type="line" smooth="yes"/>
      <point x="406" y="440"/>
      <point x="335" y="510"/>
      <point x="229" y="510" type="curve" smooth="yes"/>
      <point x="123" y="510"/>
      <point x="52" y="440"/>
      <point x="52" y="334" type="curve" smooth="yes"/>
      <point x="52" y="166" type="line" smooth="yes"/>
      <point x="52" y="60"/>
      <point x="123" y="-10"/>
      <point x="229" y="-10" type="curve" smooth="yes"/>
    </contour>
  </outline>
</glyph>
<glyph name="f" format="1">
  <advance width="270"/>
  <unicode hex="0066"/>
  <outline>
    <contour>
      <point x="173" y="0" type="line"/>
      <point x="173" y="525" type="line" smooth="yes"/>
      <point x="173" y="576"/>
      <point x="205" y="604"/>
      <point x="263" y="604" type="curve"/>
      <point x="266" y="700" type="line"/>
      <point x="107" y="700"/>
      <point x="68" y="604"/>
      <point x="68" y="525" type="curve" smooth="yes"/>
      <point x="68" y="0" type="line"/>
    </contour>
    <contour>
      <point x="269" y="397" type="line"/>
      <point x="269" y="500" type="line"/>
      <point x="7" y="500" type="line"/>
      <point x="7" y="397" type="line"/>
    </contour>
  </outline>
</glyph>
<glyph name="h" format="1">
  <advance width="476"/>
  <unicode hex="0068"/>
  <outline>
    <contour>
      <point x="418" y="-1" type="line"/>
      <point x="418" y="341" type="line" smooth="yes"/>
      <point x="418" y="451"/>
      <point x="373" y="508"/>
      <point x="276" y="508" type="curve" smooth="yes"/>
      <point x="171" y="508"/>
      <point x="121" y="441"/>
      <point x="121" y="333" type="curve"/>
      <point x="166" y="333" type="line"/>
      <point x="166" y="381"/>
      <point x="194" y="410"/>
      <point x="241" y="410" type="curve" smooth="yes"/>
      <point x="288" y="410"/>
      <point x="316" y="381"/>
      <point x="316" y="333" type="curve" smooth="yes"/>
      <point x="316" y="-1" type="line"/>
    </contour>
    <contour>
      <point x="166" y="-1" type="line"/>
      <point x="166" y="699" type="line"/>
      <point x="64" y="699" type="line"/>
      <point x="64" y="-1" type="line"/>
    </contour>
  </outline>
</glyph>
<glyph name="i" format="1">
  <advance width="182"/>
  <unicode hex="0069"/>
  <outline>
    <contour>
      <point x="142" y="0" type="line"/>
      <point x="142" y="500" type="line"/>
      <point x="40" y="500" type="line"/>
      <point x="40" y="0" type="line"/>
    </contour>
    <contour>
      <point x="133" y="625"/>
      <point x="166" y="659"/>
      <point x="166" y="700" type="curve" smooth="yes"/>
      <point x="166" y="740"/>
      <point x="132" y="774"/>
      <point x="91" y="774" type="curve" smooth="yes"/>
      <point x="50" y="774"/>
      <point x="16" y="740"/>
      <point x="16" y="700" type="curve" smooth="yes"/>
      <point x="16" y="658"/>
      <point x="49" y="625"/>
      <point x="91" y="625" type="curve" smooth="yes"/>
    </contour>
  </outline>
</glyph>
<glyph name="j" format="1">
  <advance width="182"/>
  <unicode hex="006A"/>
  <outline>
    <contour>
      <point x="73" y="-175"/>
      <point x="135" y="-113"/>
      <point x="135" y="-20" type="curve" smooth="yes"/>
      <point x="135" y="503" type="line"/>
      <point x="34" y="503" type="line"/>
      <point x="34" y="-20" type="line" smooth="yes"/>
      <point x="34" y="-58"/>
      <point x="16" y="-77"/>
      <point x="-21" y="-77" type="curve"/>
      <point x="-21" y="-175" type="line"/>
    </contour>
    <contour>
      <point x="128" y="625"/>
      <point x="160" y="657"/>
      <point x="160" y="700" type="curve" smooth="yes"/>
      <point x="160" y="743"/>
      <point x="128" y="774"/>
      <point x="84" y="774" type="curve" smooth="yes"/>
      <point x="40" y="774"/>
      <point x="9" y="743"/>
      <point x="9" y="700" type="curve" smooth="yes"/>
      <point x="9" y="657"/>
      <point x="40" y="625"/>
      <point x="84" y="625" type="curve" smooth="yes"/>
    </contour>
  </outline>
</glyph>
<glyph name="k" format="1">
  <advance width="398"/>
  <unicode hex="006B"/>
  <outline>
    <contour>
      <point x="390" y="0" type="line"/>
      <point x="197" y="250" type="line"/>
      <point x="390" y="500" type="line"/>
      <point x="259" y="500" type="line"/>
      <point x="70" y="250" type="line"/>
      <point x="258" y="0" type="line"/>
    </contour>
    <contour>
      <point x="146" y="0" type="line"/>
      <point x="147" y="700" type="line"/>
      <point x="45" y="700" type="line"/>
      <point x="44" y="0" type="line"/>
    </contour>
  </outline>
</glyph>
<glyph name="m" format="1">
  <advance width="756"/>
  <unicode hex="006D"/>
  <outline>
    <contour>
      <point x="670" y="0" type="line"/>
      <point x="670" y="343" type="line" smooth="yes"/>
      <point x="670" y="453"/>
      <point x="625" y="509"/>
      <point x="529" y="509" type="curve" smooth="yes"/>
      <point x="423" y="509"/>
      <point x="373" y="442"/>
      <point x="373" y="334" type="curve"/>
      <point x="418" y="334" type="line"/>
      <point x="418" y="382"/>
      <point x="446" y="411"/>
      <point x="493" y="411" type="curve" smooth="yes"/>
      <point x="540" y="411"/>
      <point x="568" y="382"/>
      <point x="568" y="334" type="curve" smooth="yes"/>
      <point x="568" y="0" type="line"/>
    </contour>
    <contour>
      <point x="166" y="0" type="line"/>
      <point x="166" y="500" type="line"/>
      <point x="64" y="500" type="line"/>
      <point x="64" y="0" type="line"/>
    </contour>
    <contour>
      <point x="418" y="0" type="line"/>
      <point x="418" y="343" type="line" smooth="yes"/>
      <point x="418" y="453"/>
      <point x="373" y="509"/>
      <point x="277" y="509" type="curve" smooth="yes"/>
      <point x="171" y="509"/>
      <point x="121" y="442"/>
      <point x="121" y="334" type="curve"/>
      <point x="166" y="334" type="line"/>
      <point x="166" y="382"/>
      <point x="194" y="411"/>
      <point x="241" y="411" type="curve" smooth="yes"/>
      <point x="288" y="411"/>
      <point x="316" y="382"/>
      <point x="316" y="334" type="curve" smooth="yes"/>
      <point x="316" y="0" type="line"/>
    </contour>
  </outline>
</glyph>
<glyph name="n" format="1">
  <advance width="476"/>
  <unicode hex="006E"/>
  <outline>
    <contour>
      <point x="418" y="0" type="line"/>
      <point x="418" y="343" type="line" smooth="yes"/>
      <point x="418" y="453"/>
      <point x="373" y="509"/>
      <point x="277" y="509" type="curve" smooth="yes"/>
      <point x="171" y="509"/>
      <point x="121" y="442"/>
      <point x="121" y="334" type="curve"/>
      <point x="166" y="334" type="line"/>
      <point x="166" y="382"/>
      <point x="194" y="411"/>
      <point x="241" y="411" type="curve" smooth="yes"/>
      <point x="288" y="411"/>
      <point x="316" y="382"/>
      <point x="316" y="334" type="curve" smooth="yes"/>
      <point x="316" y="0" type="line"/>
    </contour>
    <contour>
      <point x="166" y="0" type="line"/>
      <point x="166" y="500" type="line"/>
      <point x="64" y="500" type="line"/>
      <point x="64" y="0" type="line"/>
    </contour>
  </outline>
</glyph>
<glyph name="o" format="1">
  <advance width="458"/>
  <unicode hex="006F"/>
  <outline>
    <contour>
      <point x="335" y="-10"/>
      <point x="406" y="61"/>
      <point x="406" y="166" type="curve" smooth="yes"/>
      <point x="406" y="334" type="line" smooth="yes"/>
      <point x="406" y="439"/>
      <point x="335" y="510"/>
      <point x="229" y="510" type="curve" smooth="yes"/>
      <point x="123" y="510"/>
      <point x="52" y="439"/>
      <point x="52" y="334" type="curve" smooth="yes"/>
      <point x="52" y="166" type="line" smooth="yes"/>
      <point x="52" y="61"/>
      <point x="123" y="-10"/>
      <point x="229" y="-10" type="curve" smooth="yes"/>
    </contour>
    <contour>
      <point x="178" y="90"/>
      <point x="154" y="115"/>
      <point x="154" y="166" type="curve" smooth="yes"/>
      <point x="154" y="334" type="line" smooth="yes"/>
      <point x="154" y="385"/>
      <point x="179" y="411"/>
      <point x="229" y="411" type="curve" smooth="yes"/>
      <point x="279" y="411"/>
      <point x="304" y="385"/>
      <point x="304" y="334" type="curve" smooth="yes"/>
      <point x="304" y="166" type="line" smooth="yes"/>
      <point x="304" y="115"/>
      <point x="280" y="90"/>
      <point x="229" y="90" type="curve" smooth="yes"/>
    </contour>
  </outline>
</glyph>
<glyph name="r" format="1">
  <advance width="290"/>
  <unicode hex="0072"/>
  <outline>
    <contour>
      <point x="155" y="1" type="line"/>
      <point x="155" y="501" type="line"/>
      <point x="54" y="501" type="line"/>
      <point x="54" y="1" type="line"/>
    </contour>
    <contour>
      <point x="155" y="327" type="line"/>
      <point x="155" y="381"/>
      <point x="181" y="414"/>
      <point x="233" y="414" type="curve" smooth="yes"/>
      <point x="259" y="414"/>
      <point x="273" y="406"/>
      <point x="275" y="401" type="curve"/>
      <point x="290" y="490" type="line"/>
      <point x="286" y="500"/>
      <point x="260" y="510"/>
      <point x="233" y="510" type="curve" smooth="yes"/>
      <point x="150" y="510"/>
      <point x="128" y="413"/>
      <point x="128" y="327" type="curve"/>
    </contour>
  </outline>
</glyph>
<glyph name="s" format="1">
  <advance width="430"/>
  <unicode hex="0073"/>
  <outline>
    <contour>
      <point x="317" y="-10"/>
      <point x="393" y="51"/>
      <point x="393" y="141" type="curve" smooth="yes"/>
      <point x="393" y="243"/>
      <point x="294" y="275"/>
      <point x="227" y="299" type="curve" smooth="yes"/>
      <point x="162" y="322"/>
      <point x="140" y="330"/>
      <point x="140" y="358" type="curve" smooth="yes"/>
      <point x="140" y="390"/>
      <point x="167" y="415"/>
      <point x="215" y="415" type="curve" smooth="yes"/>
      <point x="263" y="415"/>
      <point x="290" y="389"/>
      <point x="290" y="355" type="curve" smooth="yes"/>
      <point x="290" y="348" type="line"/>
      <point x="392" y="348" type="line"/>
      <point x="392" y="355" type="line" smooth="yes"/>
      <point x="392" y="447"/>
      <point x="319" y="510"/>
      <point x="215" y="510" type="curve" smooth="yes"/>
      <point x="111" y="510"/>
      <point x="38" y="446"/>
      <point x="38" y="357" type="curve" smooth="yes"/>
      <point x="38" y="264"/>
      <point x="119" y="234"/>
      <point x="197" y="206" type="curve" smooth="yes"/>
      <point x="270" y="180"/>
      <point x="292" y="169"/>
      <point x="292" y="139" type="curve" smooth="yes"/>
      <point x="292" y="104"/>
      <point x="262" y="86"/>
      <point x="216" y="86" type="curve" smooth="yes"/>
      <point x="162" y="86"/>
      <point x="138" y="110"/>
      <point x="138" y="141" type="curve" smooth="yes"/>
      <point x="138" y="148" type="line"/>
      <point x="37" y="148" type="line"/>
      <point x="37" y="141" type="line" smooth="yes"/>
      <point x="37" y="52"/>
      <point x="111" y="-10"/>
      <point x="214" y="-10" type="curve" smooth="yes"/>
    </contour>
  </outline>
</glyph>
<glyph name="t" format="1">
  <advance width="274"/>
  <unicode hex="0074"/>
  <outline>
    <contour>
      <point x="228" y="93" type="line"/>
      <point x="197" y="84"/>
      <point x="165" y="87"/>
      <point x="165" y="138" type="curve" smooth="yes"/>
      <point x="165" y="690" type="line"/>
      <point x="63" y="690" type="line"/>
      <point x="63" y="123" type="line" smooth="yes"/>
      <point x="63" y="8"/>
      <point x="144" y="-11"/>
      <point x="228" y="0" type="curve"/>
    </contour>
    <contour>
      <point x="250" y="402" type="line"/>
      <point x="250" y="500" type="line"/>
      <point x="10" y="500" type="line"/>
      <point x="10" y="402" type="line"/>
    </contour>
  </outline>
</glyph>
<glyph name="u" format="1">
  <advance width="476"/>
  <unicode hex="0075"/>
  <outline>
    <contour>
      <point x="305" y="-9"/>
      <point x="355" y="58"/>
      <point x="355" y="166" type="curve"/>
      <point x="310" y="166" type="line"/>
      <point x="310" y="118"/>
      <point x="282" y="89"/>
      <point x="235" y="89" type="curve" smooth="yes"/>
      <point x="188" y="89"/>
      <point x="160" y="118"/>
      <point x="160" y="166" type="curve" smooth="yes"/>
      <point x="160" y="500" type="line"/>
      <point x="58" y="500" type="line"/>
      <point x="58" y="157" type="line" smooth="yes"/>
      <point x="58" y="47"/>
      <point x="103" y="-9"/>
      <point x="199" y="-9" type="curve" smooth="yes"/>
    </contour>
    <contour>
      <point x="412" y="0" type="line"/>
      <point x="412" y="500" type="line"/>
      <point x="310" y="500" type="line"/>
      <point x="310" y="0" type="line"/>
    </contour>
  </outline>
</glyph>
<glyph name="v" format="1">
  <advance width="430"/>
  <unicode hex="0076"/>
  <outline>
    <contour>
      <point x="254" y="0" type="line"/>
      <point x="419" y="500" type="line"/>
      <point x="314" y="500" type="line"/>
      <point x="215" y="200" type="line"/>
      <point x="116" y="500" type="line"/>
      <point x="11" y="500" type="line"/>
      <point x="176" y="0" type="line"/>
    </contour>
  </outline>
</glyph>
<glyph name="w" format="1">
  <advance width="642"/>
  <unicode hex="0077"/>
  <outline>
    <contour>
      <point x="248" y="0" type="line"/>
      <point x="321" y="267" type="line"/>
      <point x="394" y="0" type="line"/>
      <point x="475" y="0" type="line"/>
      <point x="610" y="500" type="line"/>
      <point x="506" y="500" type="line"/>
      <point x="435" y="233" type="line"/>
      <point x="362" y="500" type="line"/>
      <point x="280" y="500" type="line"/>
      <point x="207" y="233" type="line"/>
      <point x="136" y="500" type="line"/>
      <point x="32" y="500" type="line"/>
      <point x="167" y="0" type="line"/>
    </contour>
  </outline>
</glyph>
<glyph name="x" format="1">
  <advance width="430"/>
  <unicode hex="0078"/>
  <outline>
    <contour>
      <point x="292" y="500" type="line"/>
      <point x="408" y="500" type="line"/>
      <point x="138" y="0" type="line"/>
      <point x="22" y="0" type="line"/>
    </contour>
    <contour>
      <point x="22" y="500" type="line"/>
      <point x="138" y="500" type="line"/>
      <point x="408" y="0" type="line"/>
      <point x="292" y="0" type="line"/>
    </contour>
  </outline>
</glyph>
<glyph name="y" format="1">
  <advance width="432"/>
  <unicode hex="0079"/>
  <outline>
    <contour>
      <point x="167" y="-201"/>
      <point x="211" y="-159"/>
      <point x="245" y="-57" type="curve"/>
      <point x="421" y="477" type="line"/>
      <point x="316" y="477" type="line"/>
      <point x="149" y="-27" type="line" smooth="yes"/>
      <point x="128" y="-91"/>
      <point x="116" y="-102"/>
      <point x="91" y="-102" type="curve"/>
      <point x="91" y="-201" type="line"/>
    </contour>
    <contour>
      <point x="261" y="41" type="line"/>
      <point x="116" y="477" type="line"/>
      <point x="11" y="477" type="line"/>
      <point x="209" y="-122" type="line"/>
    </contour>
  </outline>
</glyph>
<glyph name="z" format="1">
  <advance width="412"/>
  <unicode hex="007A"/>
  <outline>
    <contour>
      <point x="373" y="0" type="line"/>
      <point x="373" y="99" type="line"/>
      <point x="194" y="99" type="line"/>
      <point x="387" y="500" type="line"/>
      <point x="39" y="500" type="line"/>
      <point x="39" y="402" type="line"/>
      <point x="227" y="402" type="line"/>
      <point x="35" y="0" type="line"/>
    </contour>
  </outline>
</glyph>
